<svg aria-hidden="true" style="position: absolute; width: 0px; height: 0px; overflow: hidden;"><symbol id="icon-yichexiao" viewBox="0 0 1166 1024"><path d="M552.448 110.592l15.36-34.816 17.92 33.28 37.888 3.584-26.112 27.648 8.192 36.864-34.304-16.384-32.768 18.944 5.12-37.376-28.16-25.088 36.864-6.656zM1154.048 347.648L977.92 70.144c-15.36-24.064-47.616-31.232-71.68-16.384L28.16 609.792c-24.064 15.36-31.232 47.616-16.384 71.68l176.128 278.016c15.36 24.064 47.616 31.232 71.68 16.384L1138.176 419.84c24.064-15.36 31.232-47.616 15.872-72.192z m-34.816 41.984L240.64 945.664c-7.68 5.12-17.408 3.072-22.528-4.608 0 0 0-0.512-0.512-0.512L41.984 663.04c-5.12-7.68-3.072-17.408 4.608-22.528 0 0 0.512 0 0.512-0.512L925.696 83.968c7.68-5.12 17.408-3.072 22.528 4.608v0.512l176.128 278.016c4.608 7.68 2.56 17.408-5.12 22.528zM353.792 181.248l-4.096-37.888 32.256 19.456 34.816-15.36-8.704 36.864 25.6 28.16-37.888 3.072-18.944 32.768-14.848-35.328-36.864-7.68 28.672-24.064z m595.968 510.464l22.528 30.72-37.888-1.024-22.528 30.72-10.752-36.352-35.84-11.776 31.232-20.992V645.12l30.208 23.04 35.84-11.776-12.8 35.328z m-137.216 159.744l3.584 37.888-32.256-19.968-34.816 14.848 8.704-36.864-25.088-28.16 37.888-2.56 19.456-32.768 14.336 35.328 36.864 8.192-28.672 24.064z m-199.168 68.608l-15.872 34.816-17.92-33.792-37.888-4.096 26.112-27.648-7.68-36.864 33.792 16.384 33.28-18.944-5.12 37.376 28.16 25.6-36.864 7.168zM220.16 335.36l-22.016-30.72 37.888 1.536 22.528-30.72 10.24 36.864 35.84 12.288-31.744 20.992V384l-29.696-23.552-36.352 11.264 13.312-36.352z"></path><path d="M329.216 112.64c140.288-88.576 316.928-97.28 465.408-22.528l34.816-22.016c-42.496-24.064-88.576-41.472-136.192-51.712C629.248 2.048 563.2 0 498.688 10.752c-67.584 11.264-131.584 35.84-188.416 72.192-57.344 35.84-107.008 83.456-145.408 138.752-37.376 53.76-64 114.176-78.336 178.176-10.752 47.616-14.848 96.768-11.264 145.408l34.816-22.016C105.472 357.376 188.928 201.728 329.216 112.64z m504.832 797.696c-140.288 88.576-316.928 97.28-465.408 22.528l-34.816 22.016c42.496 24.064 88.576 41.472 136.192 51.712 64 14.336 130.048 16.384 194.56 5.632 67.072-10.752 131.072-35.328 187.904-72.192 57.344-36.352 107.008-83.456 145.408-139.264 37.376-53.76 64-114.176 77.824-178.176 10.752-47.616 14.848-96.768 11.264-145.408l-34.816 22.016c5.632 165.888-77.824 322.048-218.112 411.136z"></path><path d="M433.664 278.016c39.424-25.088 83.968-39.424 130.56-41.984l53.76-33.792c-146.432-16.896-284.672 70.656-331.776 209.92l53.76-33.792c22.528-40.96 54.784-75.264 93.696-100.352z m295.936 466.944c-39.424 25.088-83.968 39.424-130.56 41.984l-53.76 33.792c146.432 16.896 284.672-70.656 331.776-209.92l-53.76 33.792c-22.528 40.96-54.784 75.264-93.696 100.352z"></path><path d="M396.8 524.288c5.632 10.24 11.264 19.968 16.896 29.184l18.944 30.208c7.168 11.264 14.336 22.528 21.504 32.768l-17.92 11.264-7.68-12.288-107.52 67.072 34.304 54.784c7.168 13.824 17.92 15.872 32.256 6.144l80.384-50.176c9.728-5.12 14.848-10.752 16.384-15.872 1.536-5.632-1.536-16.384-9.728-32.256 8.192 0 16.896-1.024 26.112-3.584 6.144 16.896 8.192 28.672 7.68 36.352-1.024 7.68-5.12 14.336-12.288 19.456l-109.056 68.096c-19.456 12.8-33.792 10.24-43.52-8.192l-43.52-70.144c-3.584-5.632-9.728-15.36-19.456-29.696l19.456-12.288c4.096 8.192 8.704 15.872 13.312 23.552l106.496-66.56-32.256-51.2-90.112 56.32c-12.288 7.68-26.624 16.896-41.984 27.136l-10.24-16.384c15.872-9.216 30.208-17.92 41.984-25.088l109.568-68.608zM455.68 465.92l15.36-9.728c5.12 9.216 13.824 23.552 26.112 43.52 5.12-3.072 9.728-6.656 14.848-10.24l8.704 13.824c-5.632 3.072-11.264 5.632-15.872 8.704l19.456 30.72c3.072-4.096 6.144-9.216 8.704-14.848 3.072 5.12 6.656 10.24 10.752 15.872-4.608 6.656-8.192 11.776-9.728 15.36l36.864 58.368c6.144 9.728 8.192 16.896 6.144 20.992-2.048 4.608-8.192 11.264-17.408 19.968-4.608-4.608-10.24-9.216-17.92-13.824 8.192-5.12 13.312-8.704 15.36-10.752 2.048-2.048 1.536-6.144-2.56-12.288l-30.208-48.128c-3.584 6.144-7.168 13.312-9.728 22.016-5.12-3.584-11.776-7.168-18.944-10.752 5.632-5.632 11.776-14.848 19.456-26.624l-24.064-38.4c-7.168 4.608-14.336 9.216-21.504 14.336l-8.704-13.824c8.192-4.096 15.36-8.704 22.528-12.8L455.68 465.92z m101.376-24.064c7.168-4.608 13.824-8.704 19.968-13.312l8.704 13.824c-6.656 3.584-19.456 11.264-37.888 22.528 1.024 12.8 1.536 23.552 1.024 32.256l28.16-22.016c-5.12-3.072-8.704-5.12-11.776-6.144 2.048-2.56 4.608-7.168 7.68-12.8 7.168 4.096 17.408 10.24 31.232 18.944-2.56 4.096-5.632 8.704-8.704 13.312-3.584-3.072-6.144-5.12-8.192-6.144-9.216 7.168-17.92 14.336-27.136 22.016-8.704 7.68-14.848 13.312-18.432 17.92-6.144-4.608-10.24-8.192-13.312-10.752 5.12-4.608 7.68-10.24 7.68-16.896 0-6.144-1.024-13.312-2.56-20.48-5.632 3.584-11.776 7.68-18.944 12.8l-8.704-13.824c9.728-5.12 18.432-10.24 26.624-15.36l24.576-15.872z m-9.216-6.144c-3.072 5.12-5.12 10.24-7.168 15.872-12.288-6.144-20.992-9.728-26.624-11.776 2.56-5.632 4.608-10.24 5.632-14.848 8.192 2.56 17.408 6.144 28.16 10.752z m71.168 77.824l37.888 60.416c4.096 6.656 4.608 11.776 1.536 15.36-3.072 3.584-8.192 9.216-15.872 16.384-4.608-4.608-9.728-9.216-15.872-12.8 6.656-4.096 10.752-6.656 12.8-8.704 2.048-1.536 1.536-5.12-1.536-9.728l-7.168-11.264-32.768 20.48 22.016 34.816-14.848 9.216c-4.608-8.704-9.216-16.896-14.336-25.088l-32.256-51.2c-4.608-7.168-9.216-13.824-13.824-20.48l62.464-39.424c3.584 7.168 7.168 14.848 11.776 22.016z m-11.264 12.8l-7.68-12.288-32.768 20.48 7.68 12.288 32.768-20.48z m0.512-33.28c-0.512-13.824-4.096-31.232-11.264-51.712-7.168-20.48-13.824-37.376-20.992-50.176 7.168-2.048 13.312-4.096 19.456-6.656 0.512 3.584 2.048 8.704 4.096 15.36 2.048 7.168 4.608 14.336 7.168 22.528 18.944-11.776 32.256-20.48 40.448-26.112l8.704 13.824c-5.12 2.56-9.728 5.12-13.312 7.168 11.776 20.48 22.528 39.424 31.232 56.832 8.704 17.408 14.848 35.328 17.92 52.736 12.288 4.096 26.112 6.144 40.448 5.12-1.536 7.168-2.048 14.336-1.536 21.504-18.432-3.072-31.744-6.144-39.936-9.216-1.536 13.824-4.608 27.648-9.728 42.496-5.632-2.56-12.288-4.096-19.968-4.608 8.192-13.312 12.8-28.16 12.8-44.544-13.824-9.728-29.696-25.088-48.64-46.592l1.536 9.216c-6.144-4.096-12.8-6.656-18.432-7.168z m13.824 56.832L614.4 537.6l-32.768 20.48 7.68 12.288 32.768-20.48z m33.792-74.752c-9.728-18.944-18.944-35.328-27.136-49.152l-16.384 10.24c4.096 11.776 7.68 20.992 9.728 28.16 15.872 22.016 33.28 39.936 52.224 54.784-2.56-10.752-8.704-25.088-18.432-44.032zM676.864 410.624c3.072-13.312 4.608-26.624 4.608-39.936 0-13.312-1.536-26.624-4.096-39.424 10.24-0.512 17.92-1.024 23.552-2.048-1.024 14.336-1.024 24.064-0.512 29.696 13.312-8.704 24.576-15.872 33.792-22.016l9.728 15.36c-9.728 5.12-24.064 13.824-43.008 25.6-1.536 15.872-3.072 27.648-4.608 34.304-7.168-2.048-13.312-2.56-19.456-1.536z m82.944-21.504c-7.168 4.096-14.848 8.192-21.504 12.288l15.36 24.576c9.216-5.632 18.944-12.288 28.672-18.944l9.216 14.848c-10.752 6.144-20.48 11.776-29.696 17.408l23.552 37.376c3.072-6.144 5.632-15.36 7.68-27.648 4.608 4.096 10.24 7.168 17.408 9.728-3.072 7.168-6.144 14.848-9.216 23.552-3.072 8.192-5.632 17.92-7.68 29.184-5.632-3.072-11.776-5.12-18.944-6.656 1.024-5.12 0-11.264-3.584-18.432l-24.064-38.4c-6.656 4.096-14.336 9.216-23.04 15.36l-9.216-14.848c9.728-5.12 17.408-9.728 24.064-13.824l-15.36-24.576c-6.656 4.096-11.776 7.68-15.872 10.752l-9.216-14.848c7.168-4.096 15.872-8.704 25.088-14.336 9.728-6.144 18.944-12.288 27.136-17.92l9.216 15.36z m24.576-65.536c-3.584 5.12-6.656 10.752-9.728 17.408-9.216-6.144-22.016-12.8-38.4-19.968 4.096-5.632 7.168-11.264 8.704-16.896 17.408 8.192 30.72 14.848 39.424 19.456z m1.536-24.576c-5.12-8.192-10.752-16.896-16.896-25.6l16.384-10.24c3.072 6.144 8.192 15.36 15.36 26.624l22.528 35.84 38.912-24.576c4.608 8.704 11.264 19.456 19.456 33.28l44.032 70.656c4.608 7.68 5.12 13.824 1.024 18.432-4.096 4.608-10.24 10.752-17.92 17.92-4.608-4.608-10.24-8.704-17.408-11.776 12.288-8.192 17.92-13.824 16.896-16.896-1.024-2.56-5.632-10.752-13.824-23.552l-56.832 35.84 26.112 41.472-15.36 9.728c-6.656-11.776-12.288-20.992-16.384-28.16l-36.352-57.856c-8.704-13.312-15.872-24.576-22.016-33.792l34.816-22.016-22.528-35.328z m80.896 46.08l-13.312-20.992-56.832 35.84 13.312 20.992 56.832-35.84z m20.48 32.256l-12.8-20.48-56.832 35.84 12.8 20.48 56.832-35.84z m-43.52-78.336c-6.656 0.512-13.312 1.536-19.456 3.072 1.536-10.752 0.512-26.112-3.584-45.568 6.144 0 13.312-1.024 21.504-3.584-0.512 8.704 0 24.064 1.536 46.08z"></path></symbol><symbol id="icon-weitongguo" viewBox="0 0 1166 1024"><path d="M552.448 110.592l15.36-34.816 17.92 33.28 37.888 3.584-26.112 27.648 8.192 36.864-34.304-16.384-32.768 18.944 5.12-37.376-28.16-25.088 36.864-6.656zM1154.048 347.648L977.92 70.144c-15.36-24.064-47.616-31.232-71.68-16.384L28.16 609.792c-24.064 15.36-31.232 47.616-16.384 71.68l176.128 278.016c15.36 24.064 47.616 31.232 71.68 16.384L1138.176 419.84c24.064-15.36 31.232-47.616 15.872-72.192z m-34.816 41.984L240.64 945.664c-7.68 5.12-17.408 3.072-22.528-4.608 0 0 0-0.512-0.512-0.512L41.984 663.04c-5.12-7.68-3.072-17.408 4.608-22.528 0 0 0.512 0 0.512-0.512L925.696 83.968c7.68-5.12 17.408-3.072 22.528 4.608v0.512l176.128 278.016c4.608 7.68 2.56 17.408-5.12 22.528zM353.792 181.248l-4.096-37.888 32.256 19.456 34.816-15.36-8.704 36.864 25.6 28.16-37.888 3.072-18.944 32.768-14.848-35.328-36.864-7.68 28.672-24.064z m595.968 510.464l22.528 30.72-37.888-1.024-22.528 30.72-10.752-36.352-35.84-11.776 31.232-20.992V645.12l30.208 23.04 35.84-11.776-12.8 35.328z m-137.216 159.744l3.584 37.888-32.256-19.968-34.816 14.848 8.704-36.864-25.088-28.16 37.888-2.56 19.456-32.768 14.336 35.328 36.864 8.192-28.672 24.064z m-199.168 68.608l-15.872 34.816-17.92-33.792-37.888-4.096 26.112-27.648-7.68-36.864 33.792 16.384 33.28-18.944-5.12 37.376 28.16 25.6-36.864 7.168zM220.16 335.36l-22.016-30.72 37.888 1.536 22.528-30.72 10.24 36.864 35.84 12.288-31.744 20.992V384l-29.696-23.552-36.352 11.264 13.312-36.352z"></path><path d="M329.216 112.64c140.288-88.576 316.928-97.28 465.408-22.528l34.816-22.016c-42.496-24.064-88.576-41.472-136.192-51.712C629.248 2.048 563.2 0 498.688 10.752c-67.584 11.264-131.584 35.84-188.416 72.192-57.344 35.84-107.008 83.456-145.408 138.752-37.376 53.76-64 114.176-78.336 178.176-10.752 47.616-14.848 96.768-11.264 145.408l34.816-22.016C105.472 357.376 188.928 201.728 329.216 112.64z m504.832 797.696c-140.288 88.576-316.928 97.28-465.408 22.528l-34.816 22.016c42.496 24.064 88.576 41.472 136.192 51.712 64 14.336 130.048 16.384 194.56 5.632 67.072-10.752 131.072-35.328 187.904-72.192 57.344-36.352 107.008-83.456 145.408-139.264 37.376-53.76 64-114.176 77.824-178.176 10.752-47.616 14.848-96.768 11.264-145.408l-34.816 22.016c5.632 165.888-77.824 322.048-218.112 411.136z"></path><path d="M433.664 278.016c39.424-25.088 83.968-39.424 130.56-41.984l53.76-33.792c-146.432-16.896-284.672 70.656-331.776 209.92l53.76-33.792c22.528-40.96 54.784-75.264 93.696-100.352z m295.936 466.944c-39.424 25.088-83.968 39.424-130.56 41.984l-53.76 33.792c146.432 16.896 284.672-70.656 331.776-209.92l-53.76 33.792c-22.528 40.96-54.784 75.264-93.696 100.352z"></path><path d="M322.56 590.336c-10.24-16.384-17.92-27.648-22.528-34.304l17.92-11.264c3.584 6.656 10.752 18.944 20.992 35.328l35.84-22.528c10.24-6.656 19.968-12.8 28.672-18.944l9.216 14.848c-9.728 5.12-19.456 11.264-29.696 17.408l-35.84 22.528 20.48 32.768 48.128-30.208c11.776-7.68 23.04-14.848 32.768-21.504l9.216 14.848c-10.752 6.144-21.504 12.288-33.28 19.456l-38.912 24.576c18.944 8.704 37.376 14.336 55.808 17.92 18.432 3.072 39.936 1.536 65.024-6.144-5.12 7.68-6.144 16.384-4.096 26.112-17.92 3.584-36.864 4.096-56.32 1.024-19.456-3.072-40.96-10.752-64-23.552l35.84 56.832c6.656 10.24 12.8 19.456 18.432 28.16l-18.944 11.776c-4.096-9.216-9.728-19.456-16.384-29.696L363.52 656.384c0 29.184-2.56 53.248-8.192 72.192-5.632 18.432-11.264 34.304-16.896 47.104-5.12-3.584-13.312-5.12-24.064-5.632 7.168-9.216 14.336-24.064 20.992-45.056 7.168-20.992 10.24-43.52 10.24-67.584l-40.96 25.6c-11.776 7.68-20.992 13.312-27.136 17.92l-9.216-14.848c8.704-4.608 18.432-10.24 29.696-17.408l52.224-32.768-20.48-32.768L296.96 624.64c-12.8 8.192-23.552 14.848-31.232 20.48l-9.216-14.848c8.704-4.608 18.432-10.752 30.72-17.92l35.328-22.016zM494.592 486.4c-4.096 7.168-6.656 13.824-7.68 20.48-8.704-5.632-22.528-12.288-41.472-19.456l7.68-18.432c17.408 7.68 31.232 13.312 41.472 17.408z m30.208 70.656l30.72 48.64c22.016 5.12 51.2-3.584 87.552-26.624 36.352-22.528 61.952-40.96 76.8-54.784 1.024 8.704 3.072 16.384 7.168 24.064-43.008 27.648-74.24 46.592-93.184 56.32-19.456 9.728-36.352 15.36-51.2 16.896-14.848 1.536-23.04 5.12-24.576 11.776-1.024 6.656-1.536 15.872-1.536 28.672-8.192-2.56-15.872-4.096-23.552-4.608 4.096-12.8 8.192-25.088 11.776-36.864l-43.52-70.144c-4.096 2.56-10.752 7.168-19.968 13.312l-9.728-15.36c9.216-5.12 20.992-11.776 35.328-20.992 6.656 10.752 12.8 20.992 17.92 29.696zM604.16 373.76c-2.048 13.312-5.12 26.624-8.704 39.424s-6.656 24.576-9.216 35.328l47.104-29.696c7.168 12.288 13.824 24.064 20.992 35.328l35.328 56.32c5.12 6.656 6.144 12.288 3.072 17.408s-8.192 10.752-15.872 17.92c-4.096-4.096-10.24-8.192-18.944-11.776 7.68-5.632 12.8-9.728 14.848-12.8 2.048-2.56 0-8.704-6.656-17.408l-36.864 23.04 20.992 33.28-14.848 9.216-20.992-33.28-35.84 22.528 20.992 33.28-14.848 9.216c-10.752-18.432-21.504-36.352-32.768-54.272s-23.04-36.352-35.328-54.784l48.128-30.208c-5.632-2.56-15.36-5.12-29.184-6.656 1.536-5.632 3.072-11.264 4.096-17.408 14.336 1.536 25.088 3.072 31.232 4.608 3.072-14.848 5.12-26.112 7.168-33.792l-52.224 32.768c-10.752 6.656-19.968 12.8-28.16 18.432l-9.216-14.848c8.704-4.608 17.408-9.728 27.136-15.872L604.16 373.76z m-17.92 116.736l-11.264-17.92-35.84 22.528 11.264 17.92 35.84-22.528z m20.48 32.256l-12.288-19.456-35.84 22.528 12.288 19.456 35.84-22.528z m30.72-64.512l-11.264-17.92-36.864 23.04 11.264 17.92 36.864-23.04z m20.48 32.768l-12.288-19.456-36.864 23.04 12.288 19.456 36.864-23.04zM714.24 358.4c-3.584 6.656-6.144 13.312-8.704 20.48-22.528-11.776-37.888-18.432-46.08-19.968 3.072-5.632 5.632-12.8 7.68-20.48 9.216 3.072 25.088 9.728 47.104 19.968z m44.544 118.272l-37.376-59.392c-12.8 8.192-22.528 14.336-28.16 18.432l-10.24-16.384c5.632-2.048 15.872-7.68 31.232-17.408l15.36-9.728c4.608 8.704 9.216 16.896 14.336 25.088l31.744 50.688c24.064 3.584 51.712-4.096 82.432-22.528 30.72-18.944 54.272-35.328 70.656-49.152 0 7.68 2.048 15.872 5.632 25.088l-48.64 30.72c-13.824 8.704-26.112 15.872-38.4 22.016-11.776 6.144-23.04 10.24-33.28 11.264-10.24 1.024-19.968 1.536-28.16 0.512-8.704-0.512-13.824 3.072-15.872 11.776-2.048 8.192-3.072 19.456-4.096 32.256-6.656-3.584-14.336-5.12-23.552-4.608 7.68-25.6 13.312-41.472 16.384-48.64z m95.744-70.144c2.56-3.072 1.536-8.704-3.584-16.896l-46.08-74.24-52.736 33.28c-6.144 3.584-12.288 8.192-18.944 12.8l-9.728-15.36c7.168-4.096 16.384-9.216 26.624-15.36l46.592-29.184c-8.704-14.336-16.896-26.112-24.576-35.84l18.944-11.776c4.096 7.168 11.264 19.968 22.016 37.376 11.264-7.168 21.504-13.824 30.208-19.968l9.728 15.36c-9.216 5.12-19.456 11.264-31.232 18.432l50.176 80.384c7.68 12.288 8.704 22.016 3.072 29.184-5.632 7.168-13.824 14.336-24.576 21.504-4.608-5.12-10.752-10.24-18.432-14.848 11.776-6.656 19.968-11.776 22.528-14.848z m-98.304-28.16c3.584-5.12 6.656-11.264 9.728-18.432 22.016 13.312 36.864 23.04 44.032 29.184-2.56 4.608-6.144 10.752-10.752 18.944-13.824-11.776-28.16-21.504-43.008-29.696z"></path></symbol><symbol id="icon-yitongguo" viewBox="0 0 1166 1024"><path d="M552.448 110.592l15.36-34.816 17.92 33.28 37.888 3.584-26.112 27.648 8.192 36.864-34.304-16.384-32.768 18.944 5.12-37.376-28.16-25.088 36.864-6.656zM1154.048 347.648L977.92 70.144c-15.36-24.064-47.616-31.232-71.68-16.384L28.16 609.792c-24.064 15.36-31.232 47.616-16.384 71.68l176.128 278.016c15.36 24.064 47.616 31.232 71.68 16.384L1138.176 419.84c24.064-15.36 31.232-47.616 15.872-72.192z m-34.816 41.984L240.64 945.664c-7.68 5.12-17.408 3.072-22.528-4.608 0 0 0-0.512-0.512-0.512L41.984 663.04c-5.12-7.68-3.072-17.408 4.608-22.528 0 0 0.512 0 0.512-0.512L925.696 83.968c7.68-5.12 17.408-3.072 22.528 4.608v0.512l176.128 278.016c4.608 7.68 2.56 17.408-5.12 22.528zM353.792 181.248l-4.096-37.888 32.256 19.456 34.816-15.36-8.704 36.864 25.6 28.16-37.888 3.072-18.944 32.768-14.848-35.328-36.864-7.68 28.672-24.064z m595.968 510.464l22.528 30.72-37.888-1.024-22.528 30.72-10.752-36.352-35.84-11.776 31.232-20.992V645.12l30.208 23.04 35.84-11.776-12.8 35.328z m-137.216 159.744l3.584 37.888-32.256-19.968-34.816 14.848 8.704-36.864-25.088-28.16 37.888-2.56 19.456-32.768 14.336 35.328 36.864 8.192-28.672 24.064z m-199.168 68.608l-15.872 34.816-17.92-33.792-37.888-4.096 26.112-27.648-7.68-36.864 33.792 16.384 33.28-18.944-5.12 37.376 28.16 25.6-36.864 7.168zM220.16 335.36l-22.016-30.72 37.888 1.536 22.528-30.72 10.24 36.864 35.84 12.288-31.744 20.992V384l-29.696-23.552-36.352 11.264 13.312-36.352z"></path><path d="M329.216 112.64c140.288-88.576 316.928-97.28 465.408-22.528l34.816-22.016c-42.496-24.064-88.576-41.472-136.192-51.712C629.248 2.048 563.2 0 498.688 10.752c-67.584 11.264-131.584 35.84-188.416 72.192-57.344 35.84-107.008 83.456-145.408 138.752-37.376 53.76-64 114.176-78.336 178.176-10.752 47.616-14.848 96.768-11.264 145.408l34.816-22.016C105.472 357.376 188.928 201.728 329.216 112.64z m504.832 797.696c-140.288 88.576-316.928 97.28-465.408 22.528l-34.816 22.016c42.496 24.064 88.576 41.472 136.192 51.712 64 14.336 130.048 16.384 194.56 5.632 67.072-10.752 131.072-35.328 187.904-72.192 57.344-36.352 107.008-83.456 145.408-139.264 37.376-53.76 64-114.176 77.824-178.176 10.752-47.616 14.848-96.768 11.264-145.408l-34.816 22.016c5.632 165.888-77.824 322.048-218.112 411.136z"></path><path d="M433.664 278.016c39.424-25.088 83.968-39.424 130.56-41.984l53.76-33.792c-146.432-16.896-284.672 70.656-331.776 209.92l53.76-33.792c22.528-40.96 54.784-75.264 93.696-100.352z m295.936 466.944c-39.424 25.088-83.968 39.424-130.56 41.984l-53.76 33.792c146.432 16.896 284.672-70.656 331.776-209.92l-53.76 33.792c-22.528 40.96-54.784 75.264-93.696 100.352z"></path><path d="M389.12 526.848c5.632 10.24 11.264 19.968 16.896 29.184l18.944 30.208c7.168 11.264 14.336 22.528 21.504 32.768l-17.92 11.264-7.68-12.288-107.52 67.072 34.304 54.784c7.168 13.824 17.92 15.872 32.256 6.144l80.384-50.176c9.728-5.12 14.848-10.752 16.384-15.872 1.536-5.632-1.536-16.384-9.728-32.256 8.192 0 16.896-1.024 26.112-3.584 6.144 16.896 8.192 28.672 7.68 36.352-1.024 7.68-5.12 14.336-12.288 19.456L379.392 768c-19.456 12.8-33.792 10.24-43.52-8.192l-43.52-70.144c-3.584-5.632-9.728-15.36-19.456-29.696l19.456-12.288c4.096 8.192 8.704 15.872 13.312 23.552l106.496-66.56-32.256-51.2-90.112 56.32c-12.288 7.68-26.624 16.896-41.984 27.136l-10.24-16.384c15.872-9.216 30.208-17.92 41.984-25.088L389.12 526.848zM494.592 490.496c-4.096 7.168-6.656 13.824-7.68 20.48-8.704-5.632-22.528-12.288-41.472-19.456l7.68-18.432c17.408 7.168 31.232 13.312 41.472 17.408z m30.208 70.144l30.72 48.64c22.016 5.12 51.2-3.584 87.552-26.624 36.352-22.528 61.952-40.96 76.8-54.784 1.024 8.704 3.072 16.384 7.168 24.064-43.008 27.648-74.24 46.592-93.184 56.32-19.456 9.728-36.352 15.36-51.2 16.896-14.848 1.536-23.04 5.12-24.576 11.776-1.024 6.656-1.536 15.872-1.536 28.672-8.192-2.56-15.872-4.096-23.552-4.608 4.096-12.8 8.192-25.088 11.776-36.864l-43.52-70.144c-4.096 2.56-10.752 7.168-19.968 13.312l-9.728-15.36c9.216-5.12 20.992-11.776 35.328-20.992 6.656 11.264 12.288 20.992 17.92 29.696zM604.16 377.856c-2.048 13.312-5.12 26.624-8.704 39.424s-6.656 24.576-9.216 35.328l47.104-29.696c6.656 12.288 13.824 24.064 20.992 35.328l35.328 56.32c5.12 6.656 6.144 12.288 3.072 17.408s-8.192 10.752-15.872 17.92c-4.096-4.096-10.24-8.192-18.944-11.776 7.68-5.632 12.8-9.728 14.848-12.8 2.048-2.56 0-8.704-6.656-17.408l-36.864 23.04 20.992 33.28-14.848 9.216-20.992-33.28-35.84 22.528 20.992 33.28-14.848 9.216c-10.752-18.432-21.504-36.352-32.768-54.272s-23.04-36.352-35.328-54.784l48.128-30.208c-5.632-2.56-15.36-5.12-29.184-6.656 1.536-5.632 3.072-11.264 4.096-17.408 14.336 1.536 25.088 3.072 31.232 4.608 3.072-14.848 5.12-26.112 7.168-33.792L525.824 445.44c-10.752 6.656-19.968 12.8-28.16 18.432l-9.216-14.848c8.704-4.608 17.408-9.728 27.136-15.872L604.16 377.856z m-17.92 116.224l-11.264-17.92-35.84 22.528 11.264 17.92 35.84-22.528z m20.48 32.768l-12.288-19.456-35.84 22.528 12.288 19.456 35.84-22.528z m30.72-64.512l-11.264-17.92-36.864 23.04 11.264 17.92 36.864-23.04z m20.48 32.256l-12.288-19.456-36.864 23.04 12.288 19.456 36.864-23.04zM714.24 361.984c-3.584 6.656-6.144 13.312-8.704 20.48-22.528-11.776-37.888-18.432-46.08-19.968 3.072-5.632 5.632-12.8 7.68-20.48 9.216 3.072 25.088 9.728 47.104 19.968z m44.544 118.272l-37.376-59.392c-12.8 8.192-22.528 14.336-28.16 18.432l-10.24-16.384c5.632-2.048 15.872-7.68 31.232-17.408l15.36-9.728c4.608 8.704 9.216 16.896 14.336 25.088l31.744 50.688c24.064 3.584 51.712-4.096 82.432-22.528 30.72-18.944 54.272-35.328 70.656-49.152 0 7.68 2.048 15.872 5.632 25.088l-48.64 30.72c-13.824 8.704-26.112 15.872-38.4 22.016-11.776 6.144-23.04 10.24-33.28 11.264-10.24 1.024-19.968 1.536-28.16 0.512-8.704-0.512-13.824 3.072-15.872 11.776-2.048 8.192-3.072 19.456-4.096 32.256-6.656-3.584-14.336-5.12-23.552-4.608 7.68-25.088 13.312-41.472 16.384-48.64z m95.232-69.632c2.56-3.072 1.536-8.704-3.584-16.896l-46.08-74.24-52.736 33.28c-6.144 3.584-12.288 8.192-18.944 12.8l-9.728-15.36c7.168-4.096 16.384-9.216 26.624-15.36l46.592-29.184c-8.704-14.336-16.896-26.112-24.576-35.84l18.944-11.776c4.096 7.168 11.264 19.968 22.016 37.376 11.264-7.168 21.504-13.824 30.208-19.968l9.728 15.36c-9.216 5.12-19.456 11.264-31.232 18.432l50.176 80.384c7.68 12.288 8.704 22.016 3.072 29.184-5.632 7.168-13.824 14.336-24.576 21.504-4.608-5.12-10.752-10.24-18.432-14.848 12.288-6.656 19.968-11.776 22.528-14.848z m-97.792-28.16c3.584-5.12 6.656-11.264 9.728-18.432 22.016 13.312 36.864 23.04 44.032 29.184-2.56 4.608-6.144 10.752-10.752 18.944-13.824-11.776-28.16-22.016-43.008-29.696z"></path></symbol><symbol id="icon-shenhezhong" viewBox="0 0 1166 1024"><path d="M552.448 110.592l15.36-34.816 17.92 33.28 37.888 3.584-26.112 27.648 8.192 36.864-34.304-16.384-32.768 18.944 5.12-37.376-28.16-25.088 36.864-6.656zM1154.048 347.648L977.92 70.144c-15.36-24.064-47.616-31.232-71.68-16.384L28.16 609.792c-24.064 15.36-31.232 47.616-16.384 71.68l176.128 278.016c15.36 24.064 47.616 31.232 71.68 16.384L1138.176 419.84c24.064-15.36 31.232-47.616 15.872-72.192z m-34.816 41.984L240.64 945.664c-7.68 5.12-17.408 3.072-22.528-4.608 0 0 0-0.512-0.512-0.512L41.984 663.04c-5.12-7.68-3.072-17.408 4.608-22.528 0 0 0.512 0 0.512-0.512L925.696 83.968c7.68-5.12 17.408-3.072 22.528 4.608v0.512l176.128 278.016c4.608 7.68 2.56 17.408-5.12 22.528zM353.792 181.248l-4.096-37.888 32.256 19.456 34.816-15.36-8.704 36.864 25.6 28.16-37.888 3.072-18.944 32.768-14.848-35.328-36.864-7.68 28.672-24.064z m595.968 510.464l22.528 30.72-37.888-1.024-22.528 30.72-10.752-36.352-35.84-11.776 31.232-20.992V645.12l30.208 23.04 35.84-11.776-12.8 35.328z m-137.216 159.744l3.584 37.888-32.256-19.968-34.816 14.848 8.704-36.864-25.088-28.16 37.888-2.56 19.456-32.768 14.336 35.328 36.864 8.192-28.672 24.064z m-199.168 68.608l-15.872 34.816-17.92-33.792-37.888-4.096 26.112-27.648-7.68-36.864 33.792 16.384 33.28-18.944-5.12 37.376 28.16 25.6-36.864 7.168zM220.16 335.36l-22.016-30.72 37.888 1.536 22.528-30.72 10.24 36.864 35.84 12.288-31.744 20.992V384l-29.696-23.552-36.352 11.264 13.312-36.352z"></path><path d="M329.216 112.64c140.288-88.576 316.928-97.28 465.408-22.528l34.816-22.016c-42.496-24.064-88.576-41.472-136.192-51.712C629.248 2.048 563.2 0 498.688 10.752c-67.584 11.264-131.584 35.84-188.416 72.192-57.344 35.84-107.008 83.456-145.408 138.752-37.376 53.76-64 114.176-78.336 178.176-10.752 47.616-14.848 96.768-11.264 145.408l34.816-22.016C105.472 357.376 188.928 201.728 329.216 112.64z m504.832 797.696c-140.288 88.576-316.928 97.28-465.408 22.528l-34.816 22.016c42.496 24.064 88.576 41.472 136.192 51.712 64 14.336 130.048 16.384 194.56 5.632 67.072-10.752 131.072-35.328 187.904-72.192 57.344-36.352 107.008-83.456 145.408-139.264 37.376-53.76 64-114.176 77.824-178.176 10.752-47.616 14.848-96.768 11.264-145.408l-34.816 22.016c5.632 165.888-77.824 322.048-218.112 411.136z"></path><path d="M433.664 278.016c39.424-25.088 83.968-39.424 130.56-41.984l53.76-33.792c-146.432-16.896-284.672 70.656-331.776 209.92l53.76-33.792c22.528-40.96 54.784-75.264 93.696-100.352z m295.936 466.944c-39.424 25.088-83.968 39.424-130.56 41.984l-53.76 33.792c146.432 16.896 284.672-70.656 331.776-209.92l-53.76 33.792c-22.528 40.96-54.784 75.264-93.696 100.352z"></path><path d="M344.576 569.344l78.848-49.152c3.584 6.656 7.168 12.8 10.24 18.432 3.584 5.632 7.168 10.752 11.264 16.384l-16.384 10.24-13.312-20.992L270.336 634.88l15.36 24.576-16.896 10.752c-3.584-6.656-7.168-13.312-10.752-19.456-4.096-6.656-8.192-12.8-12.8-18.944l81.408-50.688c-7.68-6.656-15.872-11.776-24.576-15.36 5.12-4.608 10.24-10.752 15.36-17.408 13.312 10.24 22.528 16.896 27.136 20.992z m-2.048 32.768l16.896-10.752c4.096 7.168 7.68 14.336 11.264 19.968l61.952-38.912c6.656 11.776 15.872 27.136 28.16 47.104 11.776 18.944 21.504 33.28 28.16 43.52l-15.36 9.728-5.12-8.192-46.592 29.184c10.24 16.384 18.944 30.208 26.624 40.96l-16.896 10.752c-6.656-11.776-14.848-25.6-25.088-41.984l-45.568 28.672 5.632 8.704-15.36 9.728c-4.608-8.704-13.312-23.04-26.112-43.52-12.8-20.48-23.04-36.352-30.72-47.616l60.928-38.4c-3.072-5.12-7.168-11.776-12.8-18.944z m33.792 52.736l-12.8-20.48-45.568 28.672 12.8 20.48 45.568-28.672z m22.016 34.816l-13.312-20.992-45.568 28.672 13.312 20.992 45.568-28.672z m39.936-73.728l-12.8-20.48L378.88 624.64l12.8 20.48 46.592-29.184z m22.016 34.816l-13.312-20.992-46.592 29.184 13.312 20.992 46.592-29.184zM482.304 486.912c-5.632-9.216-11.264-17.408-16.384-24.576l16.896-10.752c3.584 6.656 8.704 15.36 14.848 25.6l11.264 17.92c7.168-4.608 14.336-9.216 22.528-14.848l10.24 16.384c-8.704 4.608-16.384 9.216-23.552 13.312l17.92 28.672c0.512-1.536 2.048-6.144 5.12-13.312 13.824 6.656 26.112 12.288 36.352 16.896-3.584 6.656-6.144 12.288-8.192 17.408-11.776-6.144-21.504-11.776-30.208-15.872l37.888 60.416c7.168 11.264 14.336 22.528 22.016 33.792l-16.896 10.752c-6.144-12.8-13.312-24.064-20.48-34.816l-35.328-56.32c2.56 16.384 3.584 35.84 2.048 57.856-8.704-4.096-15.36-7.168-20.48-8.704 2.048-9.728 3.072-22.016 3.072-36.864-0.512-14.848-3.072-31.232-8.704-48.64-8.192 5.12-16.896 10.752-25.6 16.896l-10.24-16.384c10.24-5.632 19.456-10.752 27.136-15.872l-11.264-18.944z m55.296-11.264l-10.24-16.384c7.68-3.072 15.36-7.168 23.04-12.288l60.928-38.4c8.704-5.632 17.408-11.776 25.6-18.432l10.24 16.384c-9.728 5.12-18.944 10.752-27.136 15.872L551.936 465.92c-5.12 3.072-9.728 6.144-14.336 9.728z m52.736-65.536c-6.144 8.192-9.728 14.336-11.264 18.432-9.728-6.656-18.432-11.776-26.112-14.336 5.632-8.704 9.728-14.848 11.776-17.408 7.168 3.072 15.36 7.68 25.6 13.312z m-25.6 103.424c3.072-2.048 6.144-8.192 8.704-18.432s3.072-24.064 1.536-40.96l23.04-1.024c-2.56 5.632-4.608 11.776-5.632 19.456-1.024 7.68-2.56 16.384-5.12 27.136l35.328-23.04c1.024-10.24 0.512-20.992-1.536-31.744l24.064-3.584c-1.536 3.584-2.56 10.24-2.56 20.992 0 10.752-1.536 24.064-4.608 39.936-2.56 15.872-6.656 30.208-10.752 42.496-4.608 12.288-9.728 24.576-15.872 36.352-6.656-2.048-13.824-3.584-22.016-4.608 8.704-11.264 15.872-24.576 20.992-38.912 5.632-14.336 9.216-28.672 10.752-42.496-8.704 5.632-15.872 10.24-22.528 14.848-6.144 4.608-12.8 10.24-18.944 16.384l-14.848-12.8z m113.664-27.136c-0.512 8.704-1.024 19.456-2.56 33.28 16.896 3.072 30.208 5.632 39.424 8.192 9.216 2.56 14.336 3.584 15.36 4.096-3.072 6.144-5.12 13.824-7.168 22.528-6.144-3.072-13.312-5.632-21.504-8.192s-18.432-5.12-30.72-8.192c-3.072 11.776-6.656 22.016-10.24 30.72-3.584 8.704-7.68 17.408-12.8 25.6s-10.24 16.384-15.872 24.576c-6.144-3.584-13.312-6.144-21.504-7.168 11.776-13.312 21.504-27.136 28.16-41.472 7.168-14.336 11.776-28.16 14.848-41.472 3.072-13.312 4.608-25.088 4.608-35.328 0-9.728-0.512-18.432-1.536-25.088 7.68 0.512 15.872 0 24.064-1.536-1.024 4.608-2.048 10.752-2.56 19.456zM745.472 284.672c8.704 15.36 17.92 30.208 26.112 43.52l70.656-44.032c6.144 11.264 15.36 26.112 27.136 45.056 11.776 18.432 20.48 32.256 26.624 40.96l-17.92 11.264-7.68-12.288-52.736 33.28 22.016 34.816c4.096 6.656 11.776 18.432 23.552 36.352l-19.456 12.288c-5.12-10.24-11.776-22.016-19.968-35.328l-23.552-37.376-52.736 33.28 7.68 12.288-17.92 11.264c-4.608-8.704-12.8-22.528-25.088-41.984-12.8-19.968-22.016-34.816-28.672-44.032l70.656-44.032c-9.216-14.848-18.432-28.672-27.648-42.496l18.944-12.8z m47.104 115.712l-30.208-48.128-52.736 33.28 30.208 48.128 52.736-33.28z m70.144-44.032l-30.208-48.128-52.736 33.28 30.208 48.128 52.736-33.28z"></path></symbol><symbol id="icon-plus" viewBox="0 0 1024 1024"><path d="M816.2827554 378.44521995H245.8757534c-22.93093497 0-41.38317202-18.63138402-41.38317055-41.38317204 0-22.93093497 18.63138402-41.38317202 41.38317055-41.38317052h570.407002c22.93093497 0 41.38317202 18.63138402 41.38317054 41.38317052 0 22.75178652-18.45223705 41.38317202-41.38317054 41.38317204z"></path><path d="M572.46242567 51.85854766v570.40700201c0 22.93093497-18.63138402 41.38317202-41.383172 41.38317054-22.93093497 0-41.38317202-18.63138402-41.38317054-41.38317054V51.85854766c0-22.93093497 18.63138402-41.38317202 41.38317054-41.38317054 22.93093497-0.17914845 41.38317202 18.45223705 41.383172 41.38317054z"></path><path d="M256.62462929 792.2769327c24.54326658 7.70336114 39.05424809 16.660757 43.1746506 24.72241354 1.07488773 1.97062703 1.43318316 4.1204025 1.43318315 6.09102955 0 6.09102955-3.94125405 11.28631978-7.70336112 11.28631977-2.32892244 0-4.83699334-1.79147858-6.62847341-6.09102954-4.65784638-11.82376365-8.95739584-19.34797634-31.70918237-32.78407011l1.43318315-3.22466321z m185.05980842 4.83699482c13.61524223 31.88833082 44.96612918 58.22307599 82.22890015 65.38899324l-0.53744385 3.76210561c-12.71950294-0.53744386-20.7811595 2.86636631-24.5432666 7.52421416-0.89573929 1.07488773-1.97062703 1.79147858-2.8663663 1.79147858-0.53744386 0-1.07488773-0.35829543-1.97062851-0.89573928-31.70918385-24.54326658-46.93675766-44.24953834-57.50648366-77.39190534h-28.12622521c-18.98968092 41.38317202-48.36994083 70.76343194-94.41095775 96.2024378l-1.97062703-3.76210707c37.62106493-26.51389361 64.6724024-54.99841424 82.04975024-92.44033073h-57.86478055c-9.85313661 34.03810629-21.85604723 73.45064981-28.12622374 93.33607002-2.32892244 7.52421269-3.76210707 15.58586925-3.76210709 25.97644973 0 9.1365443 1.07488773 19.8854202 3.40381021 32.60492314 1.43318316 7.16591726 1.97062703 13.25694681 1.970627 17.91479318 0 12.00291061-4.29955095 16.12331312-10.92802286 16.12331311-5.55358566 0-9.1365443-3.40381019-9.13654431-15.76501771 0-6.6284734 3.94125405-37.97936035 3.94125407-45.14527761 0-8.41995199-1.43318316-12.71950294-4.29954948-13.61524223-10.56972746-3.40381019-18.98968092-5.55358566-29.5594084-6.62847339l0.5374439-4.29955095c6.09102955 0.53744386 11.28631978 1.07488773 15.22757382 1.07488773 14.69012995 0 18.45223705-4.83699334 24.18496969-20.78115949l41.74146742-116.62530041 4.29955096 1.07488776c-1.97062703 8.06165655-4.65784638 17.91479317-7.52421417 27.94707674h58.9396683c5.55358566-13.25694681 9.85313661-27.94707676 12.89865137-43.71209445H367.51719705c-5.73273411 0-14.15268609 1.07488773-18.45223704 2.86636631l-7.70336114-10.39057902c6.6284734 0.53744386 13.79439067 1.07488773 20.06456866 1.07488628h106.23471992l12.71950293-15.22757383 17.19820085 15.22757383c2.32892244 1.97062703 3.40381019 3.40381019 3.40381167 4.65784638s-1.43318316 1.79147858-4.83699483 1.79148005h-70.58428348c-3.76210707 15.76501771-8.59910043 30.45514766-14.1526861 43.71209445h73.45064982l12.0029121-15.5858707 16.66075698 15.5858707c2.32892244 1.97062703 3.40381019 3.76210707 3.40381018 4.83699337 0 1.43318316-1.43318316 1.97062703-4.83699335 1.97062701h-70.40513651z m-165.71183207-68.43450948c27.58878134 8.59910043 41.74146743 17.19820085 45.50357304 25.25985888 0.89573929 1.97062703 1.07488773 3.94125405 1.07488773 6.09102954 0 6.6284734-3.76210707 12.89865137-6.98676882 12.8986499-3.94125405 0-5.73273411-1.97062703-8.59910044-8.41995198-4.29955095-9.49483971-10.03228359-19.52712478-32.78407156-32.78407159l1.79148005-3.04551475z m101.576875 148.69278114c-2.5080709 28.84281605-8.95739584 45.68272148-17.91479316 53.5652296-5.73273411 5.19529025-10.56972746 7.16591726-14.33183455 7.16591726-5.73273411 0-7.70336114-4.65784638-7.70336113-7.70336112 0-3.22466321 1.97062703-6.98676883 7.52421417-9.85313516 15.76501771-8.59910043 23.11008194-19.34797634 28.12622373-43.71209445l4.29955094 0.53744387z m41.74146745-28.48452064c2.32892244 1.07488773 3.40381019 2.32892244 3.40381018 3.40381021 0 0.89573929-0.89573929 1.79147858-2.32892392 2.86636629l-5.73273264 4.29955095v97.27732408c0 20.06456717-0.89573929 21.85604723-18.45223704 30.45514766-0.89573929 0.35829543-1.43318316 0.53744386-1.97062704 0.53744387-1.43318316 0-2.32892244-1.07488773-2.32892245-3.22466174 0-8.59910043-6.27017797-14.15268609-34.03810629-22.3934911l0.89573928-3.94125553c17.01905241 3.76210707 27.4096329 5.55358566 33.67980942 5.55358567 8.06165655 0 9.49483971-3.22466321 9.49484118-10.03228359v-72.1966151c0-11.82376365-0.53744386-31.35088695-1.07488774-42.09976287l18.45223706 9.4948412z m12.71950292 26.33474517c25.61815431 27.58878134 31.70918385 42.09976285 31.70918239 52.66949032 0 11.82376365-5.19529025 17.55649628-11.82376365 17.55649625-4.65784638 0-6.6284734-4.65784638-6.62847341-10.56972745 0-1.07488773 0.35829543-7.16591726 0.35829689-8.59910042 0-11.46546674-2.86636631-25.25985742-17.01905389-49.26568013l3.40381167-1.79147857z m36.72532418 2.50807088c26.69304058 21.31860336 42.81635518 42.63720672 44.07038988 54.46097038 1.07488773 12.89865137-4.83699334 19.34797634-10.56972746 19.34797485-4.29955095 0-7.16591726-4.29955095-7.16591727-10.03228357 0-17.55649628-7.52421269-37.97936035-29.0219645-61.08944231l2.68721935-2.68721935zM684.96732357 794.78500359c1.43318316 1.07488773 2.5080709 2.32892244 2.50807089 3.22466322s-0.53744386 1.43318316-1.97062701 2.5080709l-10.39057901 8.41995199c-1.43318316 42.63720672-4.65784638 97.63562096-7.52421271 129.16565634-1.79147858 18.09394015-8.06165655 30.81344308-26.51389359 39.41254352-1.07488773 0.53744386-1.97062703 0.89573929-2.8663678 0.89574077-1.43318316 0-2.5080709-1.43318316-3.40381018-4.1204025-2.5080709-7.52421269-8.59910043-12.00291061-33.32151398-18.63138549l0.89573928-4.2995495c15.76501771 3.22466321 26.69304058 5.19529025 34.03810629 5.19529026 13.79439067 0 15.76501771-6.6284734 17.19820086-21.85604724 3.22466321-31.70918385 6.6284734-94.76925317 8.06165656-132.748615h-44.24953831c-5.73273411 88.31992822-23.11008194 140.98941853-67.89706416 185.59725377l-3.94125405-3.22466322c34.57555015-43.17465059 53.02778721-86.34930118 57.86478054-182.55173898h-30.81344308c-8.41995199 0-14.33183454 1.07488773-19.34797632 3.22466322l-8.06165656-10.56972748c7.16591726 0.89573929 14.33183454 1.07488773 20.96030647 1.07488774h37.62106493c0.89573929-22.21434265 1.43318316-34.57555015 1.43318316-48.9073847 0-6.98676883 0-13.79439067-0.35829543-22.3934911l24.54326658 11.82376366c1.07488773 0.53744386 1.43318316 0.89573929 1.43318315 1.43318313 0 0.35829543-0.35829543 0.89573929-1.07488772 1.43318317l-9.13654429 5.55358567c-0.35829543 8.59910043-1.43318316 34.03810629-2.5080709 51.23630715h38.33765577l11.28631976-14.33183308 17.19820086 13.43609378z m119.67081664-10.56972744c1.79147858 1.07488773 2.32892244 1.97062703 2.32892245 2.50807089 0 0.89573929-0.53744386 1.79147858-2.32892245 2.86636633l-9.85313662 7.16591725v114.4755264c0 21.85604723 0.53744386 39.77084041 1.43318316 52.66949031v1.97062704c0 3.94125405-1.07488773 5.19529025-7.16591726 7.70336114-2.86636631 1.07488773-4.65784638 1.79147858-5.73273264 1.79148004-1.79147858 0-1.97062703-1.43318316-1.97062704-3.76210708v-26.69304059h-58.40222442v28.84281608c0 3.40381019-0.89573929 4.83699334-6.27017797 7.16591727-2.86636631 1.07488773-4.83699334 1.79147858-6.09102955 1.79147858-1.79147858 0-2.32892244-1.07488773-2.32892245-3.94125406v-3.22466322c0.89573929-17.01905241 1.07488773-32.2466277 1.07488628-61.26859073v-114.83382184c0-6.98676883-0.35829543-20.7811595-0.89573929-29.55940836l18.98968091 12.89865138h48.72823626l9.85313514-12.71950292 18.63138549 14.15268609z m-23.2892304 154.60466222v-149.58852044h-58.40222442v149.58852044H781.34890981z"></path></symbol><symbol id="icon-jingbao" viewBox="0 0 1024 1024"><path d="M250.45493972 704.75157049a116.81913363 116.81913363 0 0 0 116.81913362 116.81913363h282.96190146a116.81913363 116.81913363 0 0 0 116.81913362-116.81913363V471.82694442a258.30008436 258.30008436 0 0 0-516.6001687 0z m77.8794224-232.92462607a180.42066194 180.42066194 0 0 1 360.84132388 0v232.92462607a38.93971121 38.93971121 0 0 1-38.9397112 38.9397112H367.27407334a38.93971121 38.93971121 0 0 1-38.93971122-38.9397112zM839.54736377 842.98754528H177.96268436a90.85932616 90.85932616 0 1 0 0 182.04314991h661.58467941a90.85932616 90.85932616 0 1 0 0-182.04314991z m0 104.16372749H177.96268436a12.97990374 12.97990374 0 1 1 0-26.28430507h661.58467941a12.97990374 12.97990374 0 1 1 0 26.28430507z"></path><path d="M414.65072198 680.73874858a38.93971121 38.93971121 0 0 0 38.93971121-38.93971121v-124.28257828a38.93971121 38.93971121 0 0 0-77.87942243 0V641.79903737a38.93971121 38.93971121 0 0 0 38.93971122 38.93971121zM512 169.13533577a38.93971121 38.93971121 0 0 0 38.93971121-38.93971122V46.92903506a38.93971121 38.93971121 0 0 0-77.87942242 0v83.26658949A38.93971121 38.93971121 0 0 0 512 169.13533577z m285.55788221 164.71548544a38.48592161 38.48592161 0 0 0 19.46985561-5.25660751l72.10311174-41.60160551a38.93971121 38.93971121 0 0 0-38.93971121-67.49423188l-72.10311175 41.66498398a38.93971121 38.93971121 0 0 0 19.46985561 72.68746092zM135.19364804 286.99387576l72.10311174 41.60033794a38.48592161 38.48592161 0 0 0 19.46985561 5.25660751 38.93971121 38.93971121 0 0 0 19.4698556-72.68746092l-72.10311174-41.66498398a38.93971121 38.93971121 0 0 0-38.93971121 67.49549945z"></path></symbol><symbol id="icon-jilu" viewBox="0 0 1024 1024"><path d="M601.6 175.104H460.8c-19.456 0-35.328-15.872-35.328-35.328 0-19.456 15.872-35.328 35.328-35.328h140.8c19.456 0 35.328 15.872 35.328 35.328 0 19.456-15.872 35.328-35.328 35.328z"></path><path d="M918.528 1019.392H143.872c-58.368 0-105.472-47.104-105.472-105.472V209.92c0-58.368 47.104-105.472 105.472-105.472h71.68c19.456 0 35.328 15.872 35.328 35.328s-15.872 35.328-35.328 35.328h-71.68c-19.456 0-35.328 15.872-35.328 35.328v704c0 19.456 15.872 35.328 35.328 35.328h774.144c19.456 0 35.328-15.872 35.328-35.328V209.92c0-19.456-15.872-35.328-35.328-35.328h-69.632c-19.456 0-35.328-15.872-35.328-35.328 0-19.456 15.872-35.328 35.328-35.328h69.632c58.368 0 105.472 47.104 105.472 105.472v704c0.512 58.88-46.592 105.984-104.96 105.984z"></path><path d="M708.608 245.248c-18.944 0-34.304-15.872-34.304-34.816l-1.536-140.8c-0.512-19.456 14.848-35.328 34.304-35.328 16.896-2.048 34.816 15.36 34.816 34.816l1.536 140.8c0 18.944-15.36 34.816-34.816 35.328 0.512 0 0 0 0 0zM355.84 245.248c-18.944 0-34.304-15.872-34.304-34.816l-1.536-140.8c-0.512-19.456 14.848-35.328 34.304-35.328 16.896-2.048 34.816 15.36 34.816 34.816l1.536 140.8c0.512 18.944-14.848 34.816-34.816 35.328z"></path><path d="M844.8 567.808c0-174.08-140.8-314.88-314.88-314.88S215.04 393.728 215.04 567.808s140.8 314.88 314.88 314.88 314.88-140.8 314.88-314.88z m-315.904 248.32c-136.192 0-247.296-110.592-247.296-247.296 0-136.192 110.592-247.296 247.296-247.296s247.296 110.592 247.296 247.296c-0.512 136.704-111.104 247.296-247.296 247.296z"></path><path d="M546.816 575.488V441.856h-45.568v183.808h251.904v-50.176z"></path></symbol><symbol id="icon-emoji" viewBox="0 0 1024 1024"><path d="M512 1009.1026963c-274.52496403 0-497.1026963-222.57773227-497.1026963-497.1026963s222.57773227-497.1026963 497.1026963-497.1026963S1009.1026963 237.47503597 1009.1026963 512s-224.8146944 497.1026963-497.1026963 497.1026963z m0.4971027-958.66254981c-255.26223455 0-462.05695621 206.79472165-462.05695621 462.05695621S257.23486815 974.5540589 512.4971027 974.5540589 974.5540589 767.75933725 974.5540589 512.4971027 765.52237511 50.44014649 512.4971027 50.44014649z" fill="#7F8389"></path><path d="M792.98729908 553.13524812c0 155.59314395-125.39415515 280.98729908-280.98729908 280.98729908-155.59314395 0-280.98729908-125.39415515-280.98729908-280.98729908 0 0 146.39674405 26.96782128 280.98729908 26.96782127 126.76118755 0 280.98729908-26.96782128 280.98729908-26.96782127zM619.12563105 360.5079533c0 44.1178643 27.83775099 79.90925843 62.13783704 79.90925843s62.26211271-35.79139413 62.26211271-79.90925843-27.83775099-80.0335341-62.26211271-80.0335341c-34.30008605 0-62.13783703 35.91566981-62.13783704 80.0335341zM281.46862459 360.5079533c0 44.1178643 27.83775099 79.90925843 62.26211271 79.90925843 34.30008605 0 62.13783703-35.79139413 62.13783705-79.90925843s-27.83775099-80.0335341-62.13783705-80.0335341c-34.42436172 0-62.26211271 35.91566981-62.26211271 80.0335341z" fill="#7F8389"></path></symbol><symbol id="icon-emoji1" viewBox="0 0 1024 1024"><path d="M510.81904502 1013.01120608c-276.27189363 0-501.01120608-224.73931244-501.01120609-501.01120608s224.77509895-501.01120608 501.01120609-501.01120608c276.23610712 0 501.01120608 224.73931244 501.01120607 501.01120608S787.09093866 1013.01120608 510.81904502 1013.01120608zM510.81904502 82.56182335c-236.79936791 0-429.43817665 192.63880874-429.43817664 429.43817665 0 236.79936791 192.63880874 429.43817665 429.43817664 429.43817665 236.79936791 0 429.43817665-192.63880874 429.43817663-429.43817665C940.25722165 275.20063209 747.61841292 82.56182335 510.81904502 82.56182335z"></path><path d="M512 577.59668142c99.73701652 0 192.24515708 45.09100854 253.76217588 123.7139814 12.16741501 15.5671339 9.44763989 38.04106515-6.11949402 50.20848014-15.53134739 12.20320152-38.04106513 9.4834264-50.24426667-6.11949401-47.84657019-61.15915365-119.81325128-96.22993808-197.39841519-96.22993809-78.40825374 0-150.84015955 35.67915517-198.68672972 97.91190428-12.06005546 15.67449345-34.49820019 18.64477416-50.17269363 6.58471871-15.67449345-12.06005546-18.64477416-34.53398671-6.58471872-50.17269364C318.07287673 623.47499329 411.18938803 577.59668143 512 577.59668142z"></path><path d="M555.08265167 375.10147132c0-38.40509371 31.08542566-69.49051935 69.49051937-69.49051935l92.65402581 0c38.40509371 0 69.49051935 31.08542566 69.49051937 69.49051935s-31.08542566 69.49051935-69.49051937 69.49051937l-92.65402581 0C586.21440435 444.59199069 555.08265166 413.46023801 555.08265167 375.10147132z"></path><path d="M468.91734833 375.10147132c0 38.3587667-31.08542566 69.49051935-69.49051937 69.49051937l-92.65402581 0c-38.40509371 0-69.49051935-31.13175268-69.49051937-69.49051937s31.08542566-69.49051935 69.49051937-69.49051935l92.65402581 0C437.78559565 305.61095196 468.91734834 336.74270465 468.91734833 375.10147132z"></path></symbol><symbol id="icon-emoji2" viewBox="0 0 1024 1024"><path d="M512 102.82622269a409.17377731 409.17377731 0 1 0 0 818.34755462 409.17377731 409.17377731 0 0 0 0-818.34755462zM11.89871697 512C11.89871697 235.80770031 235.80770031 11.89871697 512 11.89871697s500.10128303 223.90898334 500.10128303 500.10128303-223.90898334 500.10128303-500.10128303 500.10128303S11.89871697 788.19229969 11.89871697 512z m259.14339229-186.40138709a45.46375339 45.46375339 0 0 1 63.6492539-9.09275132l90.92750572 68.19562956a45.46375339 45.46375339 0 0 1 0 72.74200521l-90.92750572 68.19562955a45.46375339 45.46375339 0 1 1-54.55650364-72.74200521l42.41768158-31.82462641-42.41768158-31.82462748a45.46375339 45.46375339 0 0 1-9.09275026-63.6492539z m481.91578148 0a45.46375339 45.46375339 0 0 1-9.09275026 63.6492539l-42.41768158 31.82462748 42.41768158 31.82462641a45.46375339 45.46375339 0 0 1-54.55650364 72.74200521l-90.92750572-68.19562955a45.46375339 45.46375339 0 0 1 0-72.74200521l90.92750572-68.19562956a45.46375339 45.46375339 0 0 1 63.6492539 9.09275132z m-443.58983766 395.35279604a286.55803538 286.55803538 0 0 1 405.26389384 0 45.46375339 45.46375339 0 0 1-64.28574608 64.33121019 195.63052966 195.63052966 0 0 0-276.69240168 0 45.46375339 45.46375339 0 0 1-64.28574608-64.33121019z" fill="#2c2c2c"></path></symbol><symbol id="icon-emoji4" viewBox="0 0 1024 1024"><path d="M75.09333333 512c0 241.34238777 195.58855111 436.90666667 436.90666667 436.90666667 241.34238777 0 436.90666667-195.58855111 436.90666667-436.90666667 0-241.34238777-195.58855111-436.90666667-436.90666667-436.90666667-241.34238777 0-436.90666667 195.58855111-436.90666667 436.90666667z m-48.54518556 0C26.54814777 243.88494222 243.86067001 26.54814777 512 26.54814777c268.11505778 0 485.45185223 217.3125211 485.45185223 485.45185223 0 268.11505778-217.3125211 485.45185223-485.45185223 485.45185223-268.11505778 0-485.45185223-217.3125211-485.45185223-485.45185223z m606.81481557 194.18074112H390.63703666c-32.35536555 0-32.35536555-48.54518557 0-48.54518557h242.72592668c32.35536555 0 32.35536555 48.54518557 0 48.54518557z m24.27259221-242.72592669a48.54518557 48.54518557 0 1 1 0-97.09036998 48.54518557 48.54518557 0 0 1 0 97.09036998z m-291.2711111 0a48.54518557 48.54518557 0 1 1 0-97.09036998 48.54518557 48.54518557 0 0 1 0 97.09036998z" fill="#292F48"></path></symbol><symbol id="icon-emoji3" viewBox="0 0 1024 1024"><path d="M510.81329071 1010.41774559c-274.84178542 0-498.41774559-223.57596016-498.41774558-498.41774559s223.6234289-498.41774559 498.41774558-498.41774559c274.84178542 0 498.41774559 223.57596016 498.41774558 498.41774559s-223.57596016 498.41774559-498.41774558 498.41774559z m0-925.6329561c-235.53798606 0-427.21521051 191.62975572-427.2152105 427.21521051s191.62975572 427.21521051 427.2152105 427.21521051 427.21521051-191.62975572 427.21521051-427.21521051-191.62975572-427.21521051-427.21521051-427.21521051zM512 802.74368455a318.60761069 318.60761069 0 0 1-252.43672068-123.03798062 35.60126753 35.60126753 0 1 1 56.06012891-43.90822923A247.83229083 247.83229083 0 0 0 512 731.54114947a247.59494829 247.59494829 0 0 0 197.6582374-97.40506799 35.60126753 35.60126753 0 1 1 56.48734411 43.38607878A318.32280055 318.32280055 0 0 1 512 802.74368455z m-160.20570394-287.1835578A53.35443258 53.35443258 0 0 1 298.39239475 462.15822544v-71.20253508a53.35443258 53.35443258 0 1 1 106.80380263 0v71.20253508c0 29.47784953-23.92405179 53.40190131-53.40190132 53.40190131z m320.41140788 0a53.40190131 53.40190131 0 0 1-53.40190132-53.40190131v-71.20253508a53.40190131 53.40190131 0 1 1 106.80380263 0v71.20253508c0 29.47784953-23.92405179 53.40190131-53.40190131 53.40190131z" fill="#2c2c2c"></path></symbol><symbol id="icon-xiasanjiao" viewBox="0 0 1024 1024"><path d="M285.60576178 937.1097983"></path><path d="M961.11364475 937.1097983"></path><path d="M177.07208735 955.17078202"></path><path d="M1055.8663897 955.17078202"></path><path d="M-32.09008591 847.85625194"></path><path d="M1053.84815275 847.85625194"></path><path d="M-30.76157895 932.87696884"></path><path d="M88.92459449 241.56494841c-49.2454786 0-80.73817717 65.75923018-43.01181081 103.47192622L469.78728178 768.93125685c24.31080736 24.31080736 60.46632923 24.31080736 84.77589384 0l423.88941119-423.89438222c36.77938574-36.76571542 8.1040167-103.47192624-42.38918968-103.47192622L88.92459449 241.56494841z"></path><path d="M1055.12694943 932.87696884"></path></symbol></svg>
