<?xml version="1.0" encoding="utf-8"?>
<!-- Generator: Adobe Illustrator 21.1.0, SVG Export Plug-In . SVG Version: 6.00 Build 0)  -->
<svg version="1.1" id="图层_1" xmlns="http://www.w3.org/2000/svg" xmlns:xlink="http://www.w3.org/1999/xlink" x="0px" y="0px"
	 viewBox="0 0 227.7 200" style="enable-background:new 0 0 227.7 200;" xml:space="preserve">
<path d="M107.9,21.6l3-6.8l3.5,6.5l7.4,0.7l-5.1,5.4l1.6,7.2l-6.7-3.2l-6.4,3.7l1-7.3l-5.5-4.9L107.9,21.6z M225.4,67.9L191,13.7
	c-3-4.7-9.3-6.1-14-3.2L5.5,119.1c-4.7,3-6.1,9.3-3.2,14l34.4,54.3c3,4.7,9.3,6.1,14,3.2L222.3,82C227,79,228.4,72.7,225.4,67.9z
	 M218.6,76.1L47,184.7c-1.5,1-3.4,0.6-4.4-0.9c0,0,0-0.1-0.1-0.1L8.2,129.5c-1-1.5-0.6-3.4,0.9-4.4c0,0,0.1,0,0.1-0.1L180.8,16.4
	c1.5-1,3.4-0.6,4.4,0.9v0.1l34.4,54.3C220.5,73.2,220.1,75.1,218.6,76.1L218.6,76.1z M69.1,35.4L68.3,28l6.3,3.8l6.8-3L79.7,36
	l5,5.5l-7.4,0.6l-3.7,6.4l-2.9-6.9l-7.2-1.5C63.5,40.1,69.1,35.4,69.1,35.4z M185.5,135.1l4.4,6l-7.4-0.2l-4.4,6l-2.1-7.1l-7-2.3
	l6.1-4.1V126l5.9,4.5l7-2.3L185.5,135.1z M158.7,166.3l0.7,7.4l-6.3-3.9l-6.8,2.9l1.7-7.2l-4.9-5.5l7.4-0.5l3.8-6.4l2.8,6.9l7.2,1.6
	L158.7,166.3L158.7,166.3z M119.8,179.7l-3.1,6.8l-3.5-6.6l-7.4-0.8l5.1-5.4l-1.5-7.2l6.6,3.2l6.5-3.7l-1,7.3l5.5,5L119.8,179.7
	L119.8,179.7z M43,65.5l-4.3-6l7.4,0.3l4.4-6l2,7.2l7,2.4l-6.2,4.1V75l-5.8-4.6l-7.1,2.2C40.4,72.6,43,65.5,43,65.5z"/>
<path d="M64.3,22c27.4-17.3,61.9-19,90.9-4.4l6.8-4.3c-8.3-4.7-17.3-8.1-26.6-10.1C122.9,0.4,110,0,97.4,2.1
	c-13.2,2.2-25.7,7-36.8,14.1c-11.2,7-20.9,16.3-28.4,27.1c-7.3,10.5-12.5,22.3-15.3,34.8c-2.1,9.3-2.9,18.9-2.2,28.4l6.8-4.3
	C20.6,69.8,36.9,39.4,64.3,22z M162.9,177.8c-27.4,17.3-61.9,19-90.9,4.4l-6.8,4.3c8.3,4.7,17.3,8.1,26.6,10.1
	c12.5,2.8,25.4,3.2,38,1.1c13.1-2.1,25.6-6.9,36.7-14.1c11.2-7.1,20.9-16.3,28.4-27.2c7.3-10.5,12.5-22.3,15.2-34.8
	c2.1-9.3,2.9-18.9,2.2-28.4l-6.8,4.3C206.6,129.9,190.3,160.4,162.9,177.8L162.9,177.8z"/>
<path d="M84.7,54.3c7.7-4.9,16.4-7.7,25.5-8.2l10.5-6.6c-28.6-3.3-55.6,13.8-64.8,41l10.5-6.6C70.8,65.9,77.1,59.2,84.7,54.3z
	 M142.5,145.5c-7.7,4.9-16.4,7.7-25.5,8.2l-10.5,6.6c28.6,3.3,55.6-13.8,64.8-41l-10.5,6.6C156.4,133.9,150.1,140.6,142.5,145.5z"/>
<path d="M77.5,102.4c1.1,2,2.2,3.9,3.3,5.7l3.7,5.9c1.4,2.2,2.8,4.4,4.2,6.4l-3.5,2.2l-1.5-2.4l-21,13.1l6.7,10.7
	c1.4,2.7,3.5,3.1,6.3,1.2l15.7-9.8c1.9-1,2.9-2.1,3.2-3.1c0.3-1.1-0.3-3.2-1.9-6.3c1.6,0,3.3-0.2,5.1-0.7c1.2,3.3,1.6,5.6,1.5,7.1
	c-0.2,1.5-1,2.8-2.4,3.8l-21.3,13.3c-3.8,2.5-6.6,2-8.5-1.6l-8.5-13.7c-0.7-1.1-1.9-3-3.8-5.8l3.8-2.4c0.8,1.6,1.7,3.1,2.6,4.6
	l20.8-13l-6.3-10l-17.6,11c-2.4,1.5-5.2,3.3-8.2,5.3l-2-3.2c3.1-1.8,5.9-3.5,8.2-4.9L77.5,102.4L77.5,102.4z M89,91l3-1.9
	c1,1.8,2.7,4.6,5.1,8.5c1-0.6,1.9-1.3,2.9-2l1.7,2.7c-1.1,0.6-2.2,1.1-3.1,1.7l3.8,6c0.6-0.8,1.2-1.8,1.7-2.9c0.6,1,1.3,2,2.1,3.1
	c-0.9,1.3-1.6,2.3-1.9,3l7.2,11.4c1.2,1.9,1.6,3.3,1.2,4.1c-0.4,0.9-1.6,2.2-3.4,3.9c-0.9-0.9-2-1.8-3.5-2.7c1.6-1,2.6-1.7,3-2.1
	c0.4-0.4,0.3-1.2-0.5-2.4l-5.9-9.4c-0.7,1.2-1.4,2.6-1.9,4.3c-1-0.7-2.3-1.4-3.7-2.1c1.1-1.1,2.3-2.9,3.8-5.2l-4.7-7.5
	c-1.4,0.9-2.8,1.8-4.2,2.8l-1.7-2.7c1.6-0.8,3-1.7,4.4-2.5L89,91z M108.8,86.3c1.4-0.9,2.7-1.7,3.9-2.6l1.7,2.7
	c-1.3,0.7-3.8,2.2-7.4,4.4c0.2,2.5,0.3,4.6,0.2,6.3l5.5-4.3c-1-0.6-1.7-1-2.3-1.2c0.4-0.5,0.9-1.4,1.5-2.5c1.4,0.8,3.4,2,6.1,3.7
	c-0.5,0.8-1.1,1.7-1.7,2.6c-0.7-0.6-1.2-1-1.6-1.2c-1.8,1.4-3.5,2.8-5.3,4.3c-1.7,1.5-2.9,2.6-3.6,3.5c-1.2-0.9-2-1.6-2.6-2.1
	c1-0.9,1.5-2,1.5-3.3c0-1.2-0.2-2.6-0.5-4c-1.1,0.7-2.3,1.5-3.7,2.5l-1.7-2.7c1.9-1,3.6-2,5.2-3L108.8,86.3L108.8,86.3z M107,85.1
	c-0.6,1-1,2-1.4,3.1c-2.4-1.2-4.1-1.9-5.2-2.3c0.5-1.1,0.9-2,1.1-2.9C103.1,83.5,104.9,84.2,107,85.1L107,85.1z M120.9,100.3
	l7.4,11.8c0.8,1.3,0.9,2.3,0.3,3c-0.6,0.7-1.6,1.8-3.1,3.2c-0.9-0.9-1.9-1.8-3.1-2.5c1.3-0.8,2.1-1.3,2.5-1.7c0.4-0.3,0.3-1-0.3-1.9
	l-1.4-2.2l-6.4,4l4.3,6.8l-2.9,1.8c-0.9-1.7-1.8-3.3-2.8-4.9l-6.3-10c-0.9-1.4-1.8-2.7-2.7-4l12.2-7.7
	C119.3,97.4,120,98.9,120.9,100.3L120.9,100.3z M118.7,102.8l-1.5-2.4l-6.4,4l1.5,2.4L118.7,102.8z M118.8,96.3
	c-0.1-2.7-0.8-6.1-2.2-10.1c-1.4-4-2.7-7.3-4.1-9.8c1.4-0.4,2.6-0.8,3.8-1.3c0.1,0.7,0.4,1.7,0.8,3c0.4,1.4,0.9,2.8,1.4,4.4
	c3.7-2.3,6.3-4,7.9-5.1l1.7,2.7c-1,0.5-1.9,1-2.6,1.4c2.3,4,4.4,7.7,6.1,11.1c1.7,3.4,2.9,6.9,3.5,10.3c2.4,0.8,5.1,1.2,7.9,1
	c-0.3,1.4-0.4,2.8-0.3,4.2c-3.6-0.6-6.2-1.2-7.8-1.8c-0.3,2.7-0.9,5.4-1.9,8.3c-1.1-0.5-2.4-0.8-3.9-0.9c1.6-2.6,2.5-5.5,2.5-8.7
	c-2.7-1.9-5.8-4.9-9.5-9.1l0.3,1.8C121.2,96.9,119.9,96.4,118.8,96.3L118.8,96.3z M121.5,107.4L120,105l-6.4,4l1.5,2.4L121.5,107.4
	L121.5,107.4z M128.1,92.8c-1.9-3.7-3.7-6.9-5.3-9.6l-3.2,2c0.8,2.3,1.5,4.1,1.9,5.5c3.1,4.3,6.5,7.8,10.2,10.7
	C131.2,99.3,130,96.5,128.1,92.8L128.1,92.8z M132.2,80.2c0.6-2.6,0.9-5.2,0.9-7.8c0-2.6-0.3-5.2-0.8-7.7c2-0.1,3.5-0.2,4.6-0.4
	c-0.2,2.8-0.2,4.7-0.1,5.8c2.6-1.7,4.8-3.1,6.6-4.3l1.9,3c-1.9,1-4.7,2.7-8.4,5c-0.3,3.1-0.6,5.4-0.9,6.7
	C134.6,80.1,133.4,80,132.2,80.2z M148.4,76c-1.4,0.8-2.9,1.6-4.2,2.4l3,4.8c1.8-1.1,3.7-2.4,5.6-3.7l1.8,2.9
	c-2.1,1.2-4,2.3-5.8,3.4l4.6,7.3c0.6-1.2,1.1-3,1.5-5.4c0.9,0.8,2,1.4,3.4,1.9c-0.6,1.4-1.2,2.9-1.8,4.6c-0.6,1.6-1.1,3.5-1.5,5.7
	c-1.1-0.6-2.3-1-3.7-1.3c0.2-1,0-2.2-0.7-3.6l-4.7-7.5c-1.3,0.8-2.8,1.8-4.5,3l-1.8-2.9c1.9-1,3.4-1.9,4.7-2.7l-3-4.8
	c-1.3,0.8-2.3,1.5-3.1,2.1l-1.8-2.9c1.4-0.8,3.1-1.7,4.9-2.8c1.9-1.2,3.7-2.4,5.3-3.5L148.4,76L148.4,76z M153.2,63.2
	c-0.7,1-1.3,2.1-1.9,3.4c-1.8-1.2-4.3-2.5-7.5-3.9c0.8-1.1,1.4-2.2,1.7-3.3C148.9,61,151.5,62.3,153.2,63.2L153.2,63.2z M153.5,58.4
	c-1-1.6-2.1-3.3-3.3-5l3.2-2c0.6,1.2,1.6,3,3,5.2l4.4,7l7.6-4.8c0.9,1.7,2.2,3.8,3.8,6.5l8.6,13.8c0.9,1.5,1,2.7,0.2,3.6
	s-2,2.1-3.5,3.5c-0.9-0.9-2-1.7-3.4-2.3c2.4-1.6,3.5-2.7,3.3-3.3c-0.2-0.5-1.1-2.1-2.7-4.6l-11.1,7l5.1,8.1l-3,1.9
	c-1.3-2.3-2.4-4.1-3.2-5.5l-7.1-11.3c-1.7-2.6-3.1-4.8-4.3-6.6l6.8-4.3C157.9,65.3,153.5,58.4,153.5,58.4z M169.3,67.4l-2.6-4.1
	l-11.1,7l2.6,4.1L169.3,67.4L169.3,67.4z M173.3,73.7l-2.5-4l-11.1,7l2.5,4L173.3,73.7L173.3,73.7z M164.8,58.4
	c-1.3,0.1-2.6,0.3-3.8,0.6c0.3-2.1,0.1-5.1-0.7-8.9c1.2,0,2.6-0.2,4.2-0.7C164.4,51.1,164.5,54.1,164.8,58.4L164.8,58.4z"/>
</svg>
