<?xml version="1.0" standalone="no"?>
<svg t="1596533549155" class="icon" viewBox="0 0 1166 1024" version="1.1" xmlns="http://www.w3.org/2000/svg" p-id="1274"  x="0px" y="0px"  xml:space="preserve" xmlns:xlink="http://www.w3.org/1999/xlink" width="227.734375" height="200"><defs><style type="text/css"></style></defs><path d="M552.448 110.592l15.36-34.816 17.92 33.28 37.888 3.584-26.112 27.648 8.192 36.864-34.304-16.384-32.768 18.944 5.12-37.376-28.16-25.088 36.864-6.656zM1154.048 347.648L977.92 70.144c-15.36-24.064-47.616-31.232-71.68-16.384L28.16 609.792c-24.064 15.36-31.232 47.616-16.384 71.68l176.128 278.016c15.36 24.064 47.616 31.232 71.68 16.384L1138.176 419.84c24.064-15.36 31.232-47.616 15.872-72.192z m-34.816 41.984L240.64 945.664c-7.68 5.12-17.408 3.072-22.528-4.608 0 0 0-0.512-0.512-0.512L41.984 663.04c-5.12-7.68-3.072-17.408 4.608-22.528 0 0 0.512 0 0.512-0.512L925.696 83.968c7.68-5.12 17.408-3.072 22.528 4.608v0.512l176.128 278.016c4.608 7.68 2.56 17.408-5.12 22.528zM353.792 181.248l-4.096-37.888 32.256 19.456 34.816-15.36-8.704 36.864 25.6 28.16-37.888 3.072-18.944 32.768-14.848-35.328-36.864-7.68 28.672-24.064z m595.968 510.464l22.528 30.72-37.888-1.024-22.528 30.72-10.752-36.352-35.84-11.776 31.232-20.992V645.12l30.208 23.04 35.84-11.776-12.8 35.328z m-137.216 159.744l3.584 37.888-32.256-19.968-34.816 14.848 8.704-36.864-25.088-28.16 37.888-2.56 19.456-32.768 14.336 35.328 36.864 8.192-28.672 24.064z m-199.168 68.608l-15.872 34.816-17.92-33.792-37.888-4.096 26.112-27.648-7.68-36.864 33.792 16.384 33.28-18.944-5.12 37.376 28.16 25.6-36.864 7.168zM220.16 335.36l-22.016-30.72 37.888 1.536 22.528-30.72 10.24 36.864 35.84 12.288-31.744 20.992V384l-29.696-23.552-36.352 11.264 13.312-36.352z" p-id="1275"></path><path d="M329.216 112.64c140.288-88.576 316.928-97.28 465.408-22.528l34.816-22.016c-42.496-24.064-88.576-41.472-136.192-51.712C629.248 2.048 563.2 0 498.688 10.752c-67.584 11.264-131.584 35.84-188.416 72.192-57.344 35.84-107.008 83.456-145.408 138.752-37.376 53.76-64 114.176-78.336 178.176-10.752 47.616-14.848 96.768-11.264 145.408l34.816-22.016C105.472 357.376 188.928 201.728 329.216 112.64z m504.832 797.696c-140.288 88.576-316.928 97.28-465.408 22.528l-34.816 22.016c42.496 24.064 88.576 41.472 136.192 51.712 64 14.336 130.048 16.384 194.56 5.632 67.072-10.752 131.072-35.328 187.904-72.192 57.344-36.352 107.008-83.456 145.408-139.264 37.376-53.76 64-114.176 77.824-178.176 10.752-47.616 14.848-96.768 11.264-145.408l-34.816 22.016c5.632 165.888-77.824 322.048-218.112 411.136z" p-id="1276"></path><path d="M433.664 278.016c39.424-25.088 83.968-39.424 130.56-41.984l53.76-33.792c-146.432-16.896-284.672 70.656-331.776 209.92l53.76-33.792c22.528-40.96 54.784-75.264 93.696-100.352z m295.936 466.944c-39.424 25.088-83.968 39.424-130.56 41.984l-53.76 33.792c146.432 16.896 284.672-70.656 331.776-209.92l-53.76 33.792c-22.528 40.96-54.784 75.264-93.696 100.352z" p-id="1277"></path><path d="M396.8 524.288c5.632 10.24 11.264 19.968 16.896 29.184l18.944 30.208c7.168 11.264 14.336 22.528 21.504 32.768l-17.92 11.264-7.68-12.288-107.52 67.072 34.304 54.784c7.168 13.824 17.92 15.872 32.256 6.144l80.384-50.176c9.728-5.12 14.848-10.752 16.384-15.872 1.536-5.632-1.536-16.384-9.728-32.256 8.192 0 16.896-1.024 26.112-3.584 6.144 16.896 8.192 28.672 7.68 36.352-1.024 7.68-5.12 14.336-12.288 19.456l-109.056 68.096c-19.456 12.8-33.792 10.24-43.52-8.192l-43.52-70.144c-3.584-5.632-9.728-15.36-19.456-29.696l19.456-12.288c4.096 8.192 8.704 15.872 13.312 23.552l106.496-66.56-32.256-51.2-90.112 56.32c-12.288 7.68-26.624 16.896-41.984 27.136l-10.24-16.384c15.872-9.216 30.208-17.92 41.984-25.088l109.568-68.608zM455.68 465.92l15.36-9.728c5.12 9.216 13.824 23.552 26.112 43.52 5.12-3.072 9.728-6.656 14.848-10.24l8.704 13.824c-5.632 3.072-11.264 5.632-15.872 8.704l19.456 30.72c3.072-4.096 6.144-9.216 8.704-14.848 3.072 5.12 6.656 10.24 10.752 15.872-4.608 6.656-8.192 11.776-9.728 15.36l36.864 58.368c6.144 9.728 8.192 16.896 6.144 20.992-2.048 4.608-8.192 11.264-17.408 19.968-4.608-4.608-10.24-9.216-17.92-13.824 8.192-5.12 13.312-8.704 15.36-10.752 2.048-2.048 1.536-6.144-2.56-12.288l-30.208-48.128c-3.584 6.144-7.168 13.312-9.728 22.016-5.12-3.584-11.776-7.168-18.944-10.752 5.632-5.632 11.776-14.848 19.456-26.624l-24.064-38.4c-7.168 4.608-14.336 9.216-21.504 14.336l-8.704-13.824c8.192-4.096 15.36-8.704 22.528-12.8L455.68 465.92z m101.376-24.064c7.168-4.608 13.824-8.704 19.968-13.312l8.704 13.824c-6.656 3.584-19.456 11.264-37.888 22.528 1.024 12.8 1.536 23.552 1.024 32.256l28.16-22.016c-5.12-3.072-8.704-5.12-11.776-6.144 2.048-2.56 4.608-7.168 7.68-12.8 7.168 4.096 17.408 10.24 31.232 18.944-2.56 4.096-5.632 8.704-8.704 13.312-3.584-3.072-6.144-5.12-8.192-6.144-9.216 7.168-17.92 14.336-27.136 22.016-8.704 7.68-14.848 13.312-18.432 17.92-6.144-4.608-10.24-8.192-13.312-10.752 5.12-4.608 7.68-10.24 7.68-16.896 0-6.144-1.024-13.312-2.56-20.48-5.632 3.584-11.776 7.68-18.944 12.8l-8.704-13.824c9.728-5.12 18.432-10.24 26.624-15.36l24.576-15.872z m-9.216-6.144c-3.072 5.12-5.12 10.24-7.168 15.872-12.288-6.144-20.992-9.728-26.624-11.776 2.56-5.632 4.608-10.24 5.632-14.848 8.192 2.56 17.408 6.144 28.16 10.752z m71.168 77.824l37.888 60.416c4.096 6.656 4.608 11.776 1.536 15.36-3.072 3.584-8.192 9.216-15.872 16.384-4.608-4.608-9.728-9.216-15.872-12.8 6.656-4.096 10.752-6.656 12.8-8.704 2.048-1.536 1.536-5.12-1.536-9.728l-7.168-11.264-32.768 20.48 22.016 34.816-14.848 9.216c-4.608-8.704-9.216-16.896-14.336-25.088l-32.256-51.2c-4.608-7.168-9.216-13.824-13.824-20.48l62.464-39.424c3.584 7.168 7.168 14.848 11.776 22.016z m-11.264 12.8l-7.68-12.288-32.768 20.48 7.68 12.288 32.768-20.48z m0.512-33.28c-0.512-13.824-4.096-31.232-11.264-51.712-7.168-20.48-13.824-37.376-20.992-50.176 7.168-2.048 13.312-4.096 19.456-6.656 0.512 3.584 2.048 8.704 4.096 15.36 2.048 7.168 4.608 14.336 7.168 22.528 18.944-11.776 32.256-20.48 40.448-26.112l8.704 13.824c-5.12 2.56-9.728 5.12-13.312 7.168 11.776 20.48 22.528 39.424 31.232 56.832 8.704 17.408 14.848 35.328 17.92 52.736 12.288 4.096 26.112 6.144 40.448 5.12-1.536 7.168-2.048 14.336-1.536 21.504-18.432-3.072-31.744-6.144-39.936-9.216-1.536 13.824-4.608 27.648-9.728 42.496-5.632-2.56-12.288-4.096-19.968-4.608 8.192-13.312 12.8-28.16 12.8-44.544-13.824-9.728-29.696-25.088-48.64-46.592l1.536 9.216c-6.144-4.096-12.8-6.656-18.432-7.168z m13.824 56.832L614.4 537.6l-32.768 20.48 7.68 12.288 32.768-20.48z m33.792-74.752c-9.728-18.944-18.944-35.328-27.136-49.152l-16.384 10.24c4.096 11.776 7.68 20.992 9.728 28.16 15.872 22.016 33.28 39.936 52.224 54.784-2.56-10.752-8.704-25.088-18.432-44.032zM676.864 410.624c3.072-13.312 4.608-26.624 4.608-39.936 0-13.312-1.536-26.624-4.096-39.424 10.24-0.512 17.92-1.024 23.552-2.048-1.024 14.336-1.024 24.064-0.512 29.696 13.312-8.704 24.576-15.872 33.792-22.016l9.728 15.36c-9.728 5.12-24.064 13.824-43.008 25.6-1.536 15.872-3.072 27.648-4.608 34.304-7.168-2.048-13.312-2.56-19.456-1.536z m82.944-21.504c-7.168 4.096-14.848 8.192-21.504 12.288l15.36 24.576c9.216-5.632 18.944-12.288 28.672-18.944l9.216 14.848c-10.752 6.144-20.48 11.776-29.696 17.408l23.552 37.376c3.072-6.144 5.632-15.36 7.68-27.648 4.608 4.096 10.24 7.168 17.408 9.728-3.072 7.168-6.144 14.848-9.216 23.552-3.072 8.192-5.632 17.92-7.68 29.184-5.632-3.072-11.776-5.12-18.944-6.656 1.024-5.12 0-11.264-3.584-18.432l-24.064-38.4c-6.656 4.096-14.336 9.216-23.04 15.36l-9.216-14.848c9.728-5.12 17.408-9.728 24.064-13.824l-15.36-24.576c-6.656 4.096-11.776 7.68-15.872 10.752l-9.216-14.848c7.168-4.096 15.872-8.704 25.088-14.336 9.728-6.144 18.944-12.288 27.136-17.92l9.216 15.36z m24.576-65.536c-3.584 5.12-6.656 10.752-9.728 17.408-9.216-6.144-22.016-12.8-38.4-19.968 4.096-5.632 7.168-11.264 8.704-16.896 17.408 8.192 30.72 14.848 39.424 19.456z m1.536-24.576c-5.12-8.192-10.752-16.896-16.896-25.6l16.384-10.24c3.072 6.144 8.192 15.36 15.36 26.624l22.528 35.84 38.912-24.576c4.608 8.704 11.264 19.456 19.456 33.28l44.032 70.656c4.608 7.68 5.12 13.824 1.024 18.432-4.096 4.608-10.24 10.752-17.92 17.92-4.608-4.608-10.24-8.704-17.408-11.776 12.288-8.192 17.92-13.824 16.896-16.896-1.024-2.56-5.632-10.752-13.824-23.552l-56.832 35.84 26.112 41.472-15.36 9.728c-6.656-11.776-12.288-20.992-16.384-28.16l-36.352-57.856c-8.704-13.312-15.872-24.576-22.016-33.792l34.816-22.016-22.528-35.328z m80.896 46.08l-13.312-20.992-56.832 35.84 13.312 20.992 56.832-35.84z m20.48 32.256l-12.8-20.48-56.832 35.84 12.8 20.48 56.832-35.84z m-43.52-78.336c-6.656 0.512-13.312 1.536-19.456 3.072 1.536-10.752 0.512-26.112-3.584-45.568 6.144 0 13.312-1.024 21.504-3.584-0.512 8.704 0 24.064 1.536 46.08z" p-id="1278"></path>
</svg>
